<svg width="300" height="88" viewBox="0 0 300 88" fill="none" xmlns="http://www.w3.org/2000/svg">
<path d="M0 61H27V88H10C4.47715 88 0 83.5228 0 78V61Z" fill="#8ECC39"/>
<path d="M27 61H54V88H27V61Z" fill="#E5C29F"/>
<path d="M108 61H135V88H108V61Z" fill="#D7B899"/>
<path d="M135 61H162V88H135V61Z" fill="#E5C29F"/>
<path d="M162 61H189V88H162V61Z" fill="#FF901A"/>
<path d="M189 61H216V88H189V61Z" fill="#E5C29F"/>
<path d="M216 61H243V88H216V61Z" fill="#8ECC39"/>
<path d="M243 61H272V88H243V61Z" fill="#A7D948"/>
<path d="M272 61H300V88H272V61Z" fill="#8ECC39"/>
<path d="M54 61H81V88H54V61Z" fill="#DB3236"/>
<path d="M81 61H108V88H81V61Z" fill="#B548F1"/>
<circle cx="67.5" cy="74.5" r="7.5" fill="black" fill-opacity="0.3"/>
<circle cx="94.5" cy="74.5" r="7.5" fill="black" fill-opacity="0.3"/>
<circle cx="175.5" cy="74.5" r="7.5" fill="black" fill-opacity="0.3"/>
<g clip-path="url(#clip0)">
<path d="M16.5018 61.6436L8.9999 54.1417L10.7049 52.4367L11.3869 52.4367L14.4558 52.7777L14.7968 52.4367L32.1876 35.046L45.8274 59.5976L45.1454 60.2796L23.6627 50.3907L17.8658 56.1877L18.5478 59.5976L16.5018 61.6436Z" fill="#E63307"/>
<path d="M34.5747 39.479L23.6629 50.3908L45.1456 60.2797L45.8275 59.5977L34.5747 39.479Z" fill="#F23607"/>
</g>
<g clip-path="url(#clip1)">
<path d="M265.982 50.1526L267.244 60.6865L264.85 60.9734L264.314 60.552L262.111 58.3874L261.633 58.4448L237.213 61.3711L241.661 33.6394L242.619 33.5247L253.398 54.5747L261.538 53.5992L263.109 50.4969L265.982 50.1526Z" fill="#E63307"/>
<path d="M238.076 56.4107L253.398 54.5746L242.618 33.5246L241.661 33.6393L238.076 56.4107Z" fill="#F23607"/>
</g>
<path d="M173.5 8.25C173.5 9.45 158.167 31.75 150.5 42.75L146.5 38.75C145.7 37.95 143.167 38.0833 142 38.25C147.667 26.0833 159.3 1.55 160.5 0.75C162 -0.25 164 -0.25 167.5 0.75C171 1.75 173.5 6.75 173.5 8.25Z" fill="#795548"/>
<path d="M164.056 53.6626C164.456 56.0626 161.89 59.3292 160.556 60.6626L160.056 61.1626H150.556H129.056H117.556C117.556 61.1626 117.456 58.3626 117.056 55.1626C116.556 51.1626 119.556 44.1626 119.556 43.6626C119.556 43.1626 124.056 33.1626 125.556 31.6626C126.756 30.4626 129.056 31.1626 130.056 31.6626C131.056 32.3292 133.456 33.9626 135.056 35.1626C136.656 36.3626 139.39 36.9959 140.556 37.1626C141.556 36.9959 143.956 36.8626 145.556 37.6626C147.556 38.6626 148.056 39.1626 149.056 40.1626C149.856 40.9626 150.723 42.1626 151.056 42.6626L160.056 49.1626C161.223 49.6626 163.656 51.2626 164.056 53.6626Z" fill="#9E9E9E"/>
<path d="M137.114 61H133L142.257 37C143.8 37 147.091 37.2087 147.914 38.0435C148.737 38.8783 150.314 40.8261 151 41.6957L137.114 61Z" fill="#808080"/>
<path d="M122.541 52.6667C122.117 56.2222 122.541 58 122.541 58H120V53.1111C120 50.6222 121.976 44.6667 122.964 42C124.094 39.9259 126.437 35.6889 126.776 35.3333C127.199 34.8889 127.623 34.8889 128.469 35.3333C129.147 35.6889 129.034 36.963 128.893 37.5555L127.623 38.8889C126.871 39.6774 126.776 39.7778 125.795 41.5556C124.813 43.3333 124.706 44.2688 124.235 46C123.388 49.1111 122.964 49.1111 122.541 52.6667Z" fill="#A6A6A6"/>
<defs>
<clipPath id="clip0">
<rect width="29.8989" height="29.8989" fill="white" transform="translate(30.1416 33) rotate(45)"/>
</clipPath>
<clipPath id="clip1">
<rect width="29.8989" height="29.8989" fill="white" transform="translate(237.557 64.244) rotate(-96.8334)"/>
</clipPath>
</defs>
</svg>
