<svg width="26" height="25" viewBox="0 0 26 25" fill="none" xmlns="http://www.w3.org/2000/svg">
<mask id="path-1-inside-1" fill="white">
<path d="M20.8684 8.52077C20.0365 6.43986 18.4958 4.72001 16.5186 3.6652C14.5413 2.61039 12.2548 2.28854 10.0632 2.75652C7.87162 3.2245 5.91601 4.4522 4.54204 6.22261C3.16807 7.99302 2.4642 10.1922 2.55485 12.4313C2.6455 14.6705 3.52482 16.8056 5.0374 18.4591C6.54998 20.1127 8.59843 21.1783 10.8207 21.4676C13.043 21.7569 15.296 21.2513 17.1815 20.0401C19.067 18.8289 20.4636 16.9901 21.1245 14.8488L19.1818 14.2492C18.6624 15.9322 17.5646 17.3775 16.0826 18.3295C14.6007 19.2814 12.8298 19.6789 11.0832 19.4515C9.33649 19.2241 7.72643 18.3865 6.53756 17.0869C5.3487 15.7872 4.65756 14.1091 4.58631 12.3491C4.51506 10.5891 5.06829 8.86064 6.14821 7.46912C7.22814 6.0776 8.76522 5.11265 10.4878 4.74482C12.2104 4.37699 14.0075 4.62997 15.5616 5.45903C17.1157 6.2881 18.3267 7.63988 18.9805 9.27545L20.8684 8.52077Z"/>
</mask>
<path d="M20.8684 8.52077C20.0365 6.43986 18.4958 4.72001 16.5186 3.6652C14.5413 2.61039 12.2548 2.28854 10.0632 2.75652C7.87162 3.2245 5.91601 4.4522 4.54204 6.22261C3.16807 7.99302 2.4642 10.1922 2.55485 12.4313C2.6455 14.6705 3.52482 16.8056 5.0374 18.4591C6.54998 20.1127 8.59843 21.1783 10.8207 21.4676C13.043 21.7569 15.296 21.2513 17.1815 20.0401C19.067 18.8289 20.4636 16.9901 21.1245 14.8488L19.1818 14.2492C18.6624 15.9322 17.5646 17.3775 16.0826 18.3295C14.6007 19.2814 12.8298 19.6789 11.0832 19.4515C9.33649 19.2241 7.72643 18.3865 6.53756 17.0869C5.3487 15.7872 4.65756 14.1091 4.58631 12.3491C4.51506 10.5891 5.06829 8.86064 6.14821 7.46912C7.22814 6.0776 8.76522 5.11265 10.4878 4.74482C12.2104 4.37699 14.0075 4.62997 15.5616 5.45903C17.1157 6.2881 18.3267 7.63988 18.9805 9.27545L20.8684 8.52077Z" fill="white" stroke="white" stroke-width="2" mask="url(#path-1-inside-1)"/>
<path d="M21.3597 10.4114L13.5059 9.73866L21.5101 2.53029L21.3597 10.4114Z" fill="white"/>
</svg>
