<svg width="1440" height="786" viewBox="0 0 1440 786" fill="none" xmlns="http://www.w3.org/2000/svg">
<g clip-path="url(#clip0)">
<rect width="1440" height="786" fill="#191919"/>
<g clip-path="url(#clip1)">
<path d="M80.8444 659.038L70.544 656.73C77.5422 625.494 108.653 605.772 139.889 612.77C167.833 619.031 191.666 635.798 206.999 659.989L216.364 674.758L207.45 680.41L198.088 665.638C184.265 643.832 162.776 628.715 137.581 623.071C112.021 617.344 86.5709 633.478 80.8444 659.038Z" fill="#413E39"/>
<path d="M216.973 727.397L248.409 756.075L242.189 711.412L278.86 692.584L242.809 684.507L236.589 639.844L211.907 677.584L175.856 669.507L200.988 702.181L176.306 739.921L216.973 727.397Z" fill="#E0A439"/>
<path d="M180.792 733.056L206.673 725.09L211.164 729.183L216.973 727.397L236.981 745.645L231.889 709.104L268.56 690.277L232.508 682.199L228.361 652.426L211.907 677.584L175.856 669.507L200.988 702.181L180.792 733.056Z" fill="#F6C046"/>
<path d="M20.797 685.64L30.4962 642.349L133.5 665.426L123.801 708.717C156.279 735.693 172.857 779.455 162.994 823.478C148.975 886.053 86.879 925.417 24.3045 911.398C-38.27 897.378 -77.6342 835.282 -63.6148 772.708C-53.7516 728.685 -20.0856 696.18 20.797 685.64Z" fill="#91B846"/>
<path d="M-63.6148 772.708C-76.8567 831.812 -42.4634 890.457 14.114 908.6C73.0239 916.331 129.152 877.967 142.394 818.863C152.257 774.84 135.678 731.077 103.2 704.102L112.9 660.811L30.4962 642.349L20.797 685.64C-20.0856 696.18 -53.7516 728.685 -63.6148 772.708Z" fill="#AAD751"/>
<path d="M144.167 786.808C142.892 792.496 137.247 796.075 131.558 794.8C125.87 793.526 122.291 787.88 123.566 782.192C124.84 776.504 130.485 772.925 136.174 774.199C141.862 775.474 145.441 781.119 144.167 786.808Z" fill="#CFDFEC"/>
<path d="M120.189 748.983C117.64 760.36 106.349 767.517 94.9722 764.968C83.5955 762.42 76.438 751.129 78.9869 739.752C81.5357 728.375 92.8265 721.218 104.203 723.767C115.58 726.316 122.737 737.606 120.189 748.983Z" fill="#CFDFEC"/>
</g>
<g clip-path="url(#clip2)">
<path d="M1447.62 317.851L1457.4 315.661C1450.76 286.019 1421.24 267.303 1391.59 273.944C1365.08 279.886 1342.46 295.797 1327.91 318.753L1319.02 332.769L1327.48 338.132L1336.36 324.114C1349.48 303.421 1369.87 289.076 1393.78 283.719C1418.04 278.285 1442.19 293.595 1447.62 317.851Z" fill="#413E39"/>
<path d="M1318.44 382.722L1288.61 409.936L1294.51 367.552L1259.72 349.685L1293.93 342.02L1299.83 299.637L1323.25 335.45L1357.46 327.786L1333.61 358.792L1357.04 394.606L1318.44 382.722Z" fill="#E0A439"/>
<path d="M1352.78 388.091L1328.22 380.532L1323.96 384.416L1318.44 382.722L1299.46 400.038L1304.29 365.362L1269.49 347.495L1303.7 339.83L1307.64 311.576L1323.25 335.45L1357.46 327.786L1333.61 358.792L1352.78 388.091Z" fill="#F6C046"/>
<path d="M1504.61 343.095L1495.4 302.013L1397.66 323.913L1406.86 364.995C1376.04 390.594 1360.31 432.122 1369.67 473.899C1382.97 533.28 1441.9 570.635 1501.28 557.331C1560.66 544.027 1598.02 485.1 1584.71 425.719C1575.35 383.943 1543.4 353.097 1504.61 343.095Z" fill="#91B846"/>
<path d="M1584.71 425.719C1597.28 481.807 1564.64 537.459 1510.95 554.676C1455.05 562.013 1401.78 525.606 1389.22 469.519C1379.86 427.742 1395.59 386.214 1426.41 360.615L1417.21 319.533L1495.4 302.013L1504.61 343.095C1543.4 353.097 1575.35 383.943 1584.71 425.719Z" fill="#AAD751"/>
<path d="M1387.53 439.1C1388.74 444.498 1394.1 447.894 1399.5 446.684C1404.9 445.475 1408.29 440.118 1407.08 434.72C1405.87 429.322 1400.52 425.926 1395.12 427.135C1389.72 428.344 1386.32 433.702 1387.53 439.1Z" fill="#CFDFEC"/>
<path d="M1410.29 403.206C1412.71 414.002 1423.42 420.794 1434.22 418.375C1445.01 415.956 1451.81 405.242 1449.39 394.446C1446.97 383.65 1436.25 376.857 1425.46 379.276C1414.66 381.695 1407.87 392.41 1410.29 403.206Z" fill="#CFDFEC"/>
</g>
</g>
<defs>
<clipPath id="clip0">
<rect width="1440" height="786" fill="white"/>
</clipPath>
<clipPath id="clip1">
<rect width="316.673" height="316.673" fill="white" transform="translate(-19.7675 577) rotate(12.6283)"/>
</clipPath>
<clipPath id="clip2">
<rect width="300.511" height="300.511" fill="white" transform="matrix(-0.975809 0.218625 0.218625 0.975809 1543.1 240)"/>
</clipPath>
</defs>
</svg>
